<svg width="1777" height="976" xmlns="http://www.w3.org/2000/svg" xmlns:xlink="http://www.w3.org/1999/xlink" xml:space="preserve" overflow="hidden"><defs><clipPath id="clip0"><rect x="2666" y="2363" width="1777" height="976"/></clipPath></defs><g clip-path="url(#clip0)" transform="translate(-2666 -2363)"><rect x="2667" y="2364" width="1774" height="973"/><g><path d="M0 0 0.000360892 494" stroke="#BFBFBF" stroke-width="3.4375" stroke-linejoin="round" stroke-miterlimit="10" fill="none" fill-rule="evenodd" transform="matrix(1 0 0 -1 2894.5 3028.5)"/></g><g><path d="M2894.5 3028.5 4370.5 3028.5" stroke="#BFBFBF" stroke-width="3.4375" stroke-linejoin="round" stroke-miterlimit="10" fill="none" fill-rule="evenodd"/></g><g><path d="M2894.5 2623.5 3189.6 2623.5 3484.61 2623.5 3779.62 2623.5 4074.63 2623.5 4370.5 2623.5" stroke="#FFC000" stroke-width="4.58333" stroke-linecap="round" stroke-linejoin="bevel" stroke-miterlimit="10" fill="none"/></g><g><path d="M2905.33 2789.62C2905.33 2795.7 2900.41 2800.62 2894.33 2800.62 2888.26 2800.62 2883.33 2795.7 2883.33 2789.62 2883.33 2783.55 2888.26 2778.62 2894.33 2778.62 2900.41 2778.62 2905.33 2783.55 2905.33 2789.62Z" stroke="#4472C4" stroke-width="3.4375" stroke-linejoin="round" stroke-miterlimit="10" fill="#4472C4"/><path d="M3200.33 2912.62C3200.33 2918.7 3195.41 2923.62 3189.33 2923.62 3183.26 2923.62 3178.33 2918.7 3178.33 2912.62 3178.33 2906.55 3183.26 2901.62 3189.33 2901.62 3195.41 2901.62 3200.33 2906.55 3200.33 2912.62Z" stroke="#4472C4" stroke-width="3.4375" stroke-linejoin="round" stroke-miterlimit="10" fill="#4472C4"/><path d="M3495.33 2964.62C3495.33 2970.7 3490.41 2975.62 3484.33 2975.62 3478.26 2975.62 3473.33 2970.7 3473.33 2964.62 3473.33 2958.55 3478.26 2953.62 3484.33 2953.62 3490.41 2953.62 3495.33 2958.55 3495.33 2964.62Z" stroke="#4472C4" stroke-width="3.4375" stroke-linejoin="round" stroke-miterlimit="10" fill="#4472C4"/><path d="M3791.33 2990.62C3791.33 2996.7 3786.41 3001.62 3780.33 3001.62 3774.26 3001.62 3769.33 2996.7 3769.33 2990.62 3769.33 2984.55 3774.26 2979.62 3780.33 2979.62 3786.41 2979.62 3791.33 2984.55 3791.33 2990.62Z" stroke="#4472C4" stroke-width="3.4375" stroke-linejoin="round" stroke-miterlimit="10" fill="#4472C4"/><path d="M4086.33 3003.62C4086.33 3009.7 4081.41 3014.62 4075.33 3014.62 4069.26 3014.62 4064.33 3009.7 4064.33 3003.62 4064.33 2997.55 4069.26 2992.62 4075.33 2992.62 4081.41 2992.62 4086.33 2997.55 4086.33 3003.62Z" stroke="#4472C4" stroke-width="3.4375" stroke-linejoin="round" stroke-miterlimit="10" fill="#4472C4"/><path d="M4381.33 3006.62C4381.33 3012.7 4376.41 3017.62 4370.33 3017.62 4364.26 3017.62 4359.33 3012.7 4359.33 3006.62 4359.33 3000.55 4364.26 2995.62 4370.33 2995.62 4376.41 2995.62 4381.33 3000.55 4381.33 3006.62Z" stroke="#4472C4" stroke-width="3.4375" stroke-linejoin="round" stroke-miterlimit="10" fill="#4472C4"/></g><g><text fill="#FFFFFF" font-family="Calibri,Calibri_MSFontService,sans-serif" font-weight="400" font-size="41" transform="matrix(1 0 0 1 2933.74 2803)">242.048</text></g><g><text fill="#FFFFFF" font-family="Calibri,Calibri_MSFontService,sans-serif" font-weight="400" font-size="41" transform="matrix(1 0 0 1 3228.81 2927)">117.188</text></g><g><text fill="#FFFFFF" font-family="Calibri,Calibri_MSFontService,sans-serif" font-weight="400" font-size="41" transform="matrix(1 0 0 1 3523.89 2978)">65.183</text></g><g><text fill="#FFFFFF" font-family="Calibri,Calibri_MSFontService,sans-serif" font-weight="400" font-size="41" transform="matrix(1 0 0 1 3818.96 3004)">38.947</text></g><g><text fill="#FFFFFF" font-family="Calibri,Calibri_MSFontService,sans-serif" font-weight="400" font-size="41" transform="matrix(1 0 0 1 4114.04 3017)">25.598</text></g><g><text fill="#FFFFFF" font-family="Calibri,Calibri_MSFontService,sans-serif" font-weight="400" font-size="41" transform="matrix(1 0 0 1 4312.81 3043)">22.159</text></g><g><text fill="#FFFFFF" font-family="Calibri,Calibri_MSFontService,sans-serif" font-weight="400" font-size="41" transform="matrix(1 0 0 1 2933.74 2637)">410.04</text></g><g><text fill="#FFFFFF" font-family="Calibri,Calibri_MSFontService,sans-serif" font-weight="400" font-size="41" transform="matrix(1 0 0 1 2835.62 3040)">0</text></g><g><text fill="#FFFFFF" font-family="Calibri,Calibri_MSFontService,sans-serif" font-weight="400" font-size="41" transform="matrix(1 0 0 1 2793.82 2941)">100</text></g><g><text fill="#FFFFFF" font-family="Calibri,Calibri_MSFontService,sans-serif" font-weight="400" font-size="41" transform="matrix(1 0 0 1 2793.82 2842)">200</text></g><g><text fill="#FFFFFF" font-family="Calibri,Calibri_MSFontService,sans-serif" font-weight="400" font-size="41" transform="matrix(1 0 0 1 2793.82 2743)">300</text></g><g><text fill="#FFFFFF" font-family="Calibri,Calibri_MSFontService,sans-serif" font-weight="400" font-size="41" transform="matrix(1 0 0 1 2793.82 2645)">400</text></g><g><text fill="#FFFFFF" font-family="Calibri,Calibri_MSFontService,sans-serif" font-weight="400" font-size="41" transform="matrix(1 0 0 1 2793.82 2546)">500</text></g><g><text fill="#FFFFFF" font-family="Calibri,Calibri_MSFontService,sans-serif" font-weight="400" font-size="41" transform="matrix(1 0 0 1 2884.33 3094)">1</text></g><g><text fill="#FFFFFF" font-family="Calibri,Calibri_MSFontService,sans-serif" font-weight="400" font-size="41" transform="matrix(1 0 0 1 3179.41 3094)">2</text></g><g><text fill="#FFFFFF" font-family="Calibri,Calibri_MSFontService,sans-serif" font-weight="400" font-size="41" transform="matrix(1 0 0 1 3474.48 3094)">4</text></g><g><text fill="#FFFFFF" font-family="Calibri,Calibri_MSFontService,sans-serif" font-weight="400" font-size="41" transform="matrix(1 0 0 1 3769.55 3094)">8</text></g><g><text fill="#FFFFFF" font-family="Calibri,Calibri_MSFontService,sans-serif" font-weight="400" font-size="41" transform="matrix(1 0 0 1 4054.18 3094)">16</text></g><g><text fill="#FFFFFF" font-family="Calibri,Calibri_MSFontService,sans-serif" font-weight="400" font-size="41" transform="matrix(1 0 0 1 4349.25 3094)">32</text></g><g><text fill="#FFFFFF" font-family="Calibri,Calibri_MSFontService,sans-serif" font-weight="400" font-size="46" transform="matrix(6.12323e-17 -1 1 6.12323e-17 2768.13 2918)">Time(Seconds)</text></g><g><text fill="#FFFFFF" font-family="Calibri,Calibri_MSFontService,sans-serif" font-weight="400" font-size="46" transform="matrix(1 0 0 1 3469.92 3163)">Number of nodes</text></g><g><text fill="#FFFFFF" font-family="Calibri,Calibri_MSFontService,sans-serif" font-weight="400" font-size="64" transform="matrix(1 0 0 1 3106.58 2460)">Modin on Multiple Nodes </text></g><g><text fill="#FFFFFF" font-family="Calibri,Calibri_MSFontService,sans-serif" font-weight="400" font-size="41" transform="matrix(1 0 0 1 3788.92 2460)">(</text></g><g><text fill="#FFFFFF" font-family="Calibri,Calibri_MSFontService,sans-serif" font-weight="400" font-size="41" transform="matrix(1 0 0 1 3801.43 2460)">r6a.4xlarge)</text></g><g><path d="M3295 3270C3295 3276.07 3290.07 3281 3284 3281 3277.93 3281 3273 3276.07 3273 3270 3273 3263.92 3277.93 3259 3284 3259 3290.07 3259 3295 3263.92 3295 3270Z" stroke="#4472C4" stroke-width="3.4375" stroke-linejoin="round" stroke-miterlimit="10" fill="#4472C4"/></g><g><text fill="#FFFFFF" font-family="Calibri,Calibri_MSFontService,sans-serif" font-weight="400" font-size="41" transform="matrix(1 0 0 1 3338.18 3282)">Modin</text></g><g><path d="M3501.5 3270.5 3589.5 3270.5" stroke="#FFC000" stroke-width="4.58333" stroke-linecap="round" stroke-linejoin="bevel" stroke-miterlimit="10" fill="none" fill-rule="evenodd"/></g><g><text fill="#FFFFFF" font-family="Calibri,Calibri_MSFontService,sans-serif" font-weight="400" font-size="41" transform="matrix(1 0 0 1 3598.98 3282)">Pandas(baseline)</text></g><rect x="2667.5" y="2364.5" width="1774" height="973" stroke="#D9D9D9" stroke-width="3.4375" stroke-linejoin="round" stroke-miterlimit="10" fill="none"/></g></svg>