<svg width="1776" height="978" xmlns="http://www.w3.org/2000/svg" xmlns:xlink="http://www.w3.org/1999/xlink" xml:space="preserve" overflow="hidden"><defs><clipPath id="clip0"><rect x="3225" y="2850" width="1776" height="978"/></clipPath></defs><g clip-path="url(#clip0)" transform="translate(-3225 -2850)"><rect x="3226" y="2851" width="1773" height="975"/><g><path d="M0 0 0.000360892 497" stroke="#BFBFBF" stroke-width="3.4375" stroke-linejoin="round" stroke-miterlimit="10" fill="none" fill-rule="evenodd" transform="matrix(1 0 0 -1 3453.5 3517.5)"/></g><g><path d="M3453.5 3517.5 4927.5 3517.5" stroke="#BFBFBF" stroke-width="3.4375" stroke-linejoin="round" stroke-miterlimit="10" fill="none" fill-rule="evenodd"/></g><g><path d="M3453.5 3291.5 3821.63 3291.5 4190.64 3291.5 4559.65 3291.5 4927.5 3291.5" stroke="#FFC000" stroke-width="4.58333" stroke-linecap="round" stroke-linejoin="bevel" stroke-miterlimit="10" fill="none"/></g><g><path d="M3833.06 3057.27C3833.06 3063.35 3828.14 3068.27 3822.06 3068.27 3815.99 3068.27 3811.06 3063.35 3811.06 3057.27 3811.06 3051.2 3815.99 3046.27 3822.06 3046.27 3828.14 3046.27 3833.06 3051.2 3833.06 3057.27Z" stroke="#4472C4" stroke-width="3.4375" stroke-linejoin="round" stroke-miterlimit="10" fill="#4472C4"/><path d="M4201.06 3275.27C4201.06 3281.35 4196.14 3286.27 4190.06 3286.27 4183.99 3286.27 4179.06 3281.35 4179.06 3275.27 4179.06 3269.2 4183.99 3264.27 4190.06 3264.27 4196.14 3264.27 4201.06 3269.2 4201.06 3275.27Z" stroke="#4472C4" stroke-width="3.4375" stroke-linejoin="round" stroke-miterlimit="10" fill="#4472C4"/><path d="M4570.06 3376.27C4570.06 3382.35 4565.14 3387.27 4559.06 3387.27 4552.99 3387.27 4548.06 3382.35 4548.06 3376.27 4548.06 3370.2 4552.99 3365.27 4559.06 3365.27 4565.14 3365.27 4570.06 3370.2 4570.06 3376.27Z" stroke="#4472C4" stroke-width="3.4375" stroke-linejoin="round" stroke-miterlimit="10" fill="#4472C4"/><path d="M4938.06 3397.27C4938.06 3403.35 4933.14 3408.27 4927.06 3408.27 4920.99 3408.27 4916.06 3403.35 4916.06 3397.27 4916.06 3391.2 4920.99 3386.27 4927.06 3386.27 4933.14 3386.27 4938.06 3391.2 4938.06 3397.27Z" stroke="#4472C4" stroke-width="3.4375" stroke-linejoin="round" stroke-miterlimit="10" fill="#4472C4"/></g><g><path d="M4927.5 3397.5 4927.66 3397.5 4906.5 3397.5" stroke="#A6A6A6" stroke-width="3.4375" stroke-linejoin="round" stroke-miterlimit="10" fill="none"/></g><g><text fill="#FFFFFF" font-family="Calibri,Calibri_MSFontService,sans-serif" font-weight="400" font-size="41" transform="matrix(1 0 0 1 3861.03 3071)">833.183</text></g><g><text fill="#FFFFFF" font-family="Calibri,Calibri_MSFontService,sans-serif" font-weight="400" font-size="41" transform="matrix(1 0 0 1 4229.58 3289)">438.512</text></g><g><text fill="#FFFFFF" font-family="Calibri,Calibri_MSFontService,sans-serif" font-weight="400" font-size="41" transform="matrix(1 0 0 1 4598.14 3390)">256.246</text></g><g><text fill="#FFFFFF" font-family="Calibri,Calibri_MSFontService,sans-serif" font-weight="400" font-size="41" transform="matrix(1 0 0 1 4757.38 3411)">218.248</text></g><g><text fill="#FFFFFF" font-family="Calibri,Calibri_MSFontService,sans-serif" font-weight="400" font-size="41" transform="matrix(1 0 0 1 3492.47 3305)">409.937</text></g><g><text fill="#FFFFFF" font-family="Calibri,Calibri_MSFontService,sans-serif" font-weight="400" font-size="41" transform="matrix(1 0 0 1 3394.35 3529)">0</text></g><g><text fill="#FFFFFF" font-family="Calibri,Calibri_MSFontService,sans-serif" font-weight="400" font-size="41" transform="matrix(1 0 0 1 3352.55 3474)">100</text></g><g><text fill="#FFFFFF" font-family="Calibri,Calibri_MSFontService,sans-serif" font-weight="400" font-size="41" transform="matrix(1 0 0 1 3352.55 3419)">200</text></g><g><text fill="#FFFFFF" font-family="Calibri,Calibri_MSFontService,sans-serif" font-weight="400" font-size="41" transform="matrix(1 0 0 1 3352.55 3364)">300</text></g><g><text fill="#FFFFFF" font-family="Calibri,Calibri_MSFontService,sans-serif" font-weight="400" font-size="41" transform="matrix(1 0 0 1 3352.55 3308)">400</text></g><g><text fill="#FFFFFF" font-family="Calibri,Calibri_MSFontService,sans-serif" font-weight="400" font-size="41" transform="matrix(1 0 0 1 3352.55 3253)">500</text></g><g><text fill="#FFFFFF" font-family="Calibri,Calibri_MSFontService,sans-serif" font-weight="400" font-size="41" transform="matrix(1 0 0 1 3352.55 3198)">600</text></g><g><text fill="#FFFFFF" font-family="Calibri,Calibri_MSFontService,sans-serif" font-weight="400" font-size="41" transform="matrix(1 0 0 1 3352.55 3143)">700</text></g><g><text fill="#FFFFFF" font-family="Calibri,Calibri_MSFontService,sans-serif" font-weight="400" font-size="41" transform="matrix(1 0 0 1 3352.55 3088)">800</text></g><g><text fill="#FFFFFF" font-family="Calibri,Calibri_MSFontService,sans-serif" font-weight="400" font-size="41" transform="matrix(1 0 0 1 3352.55 3032)">900</text></g><g><text fill="#FFFFFF" font-family="Calibri,Calibri_MSFontService,sans-serif" font-weight="400" font-size="41" transform="matrix(1 0 0 1 3443.06 3583)">1</text></g><g><text fill="#FFFFFF" font-family="Calibri,Calibri_MSFontService,sans-serif" font-weight="400" font-size="41" transform="matrix(1 0 0 1 3811.62 3583)">2</text></g><g><text fill="#FFFFFF" font-family="Calibri,Calibri_MSFontService,sans-serif" font-weight="400" font-size="41" transform="matrix(1 0 0 1 4180.17 3583)">4</text></g><g><text fill="#FFFFFF" font-family="Calibri,Calibri_MSFontService,sans-serif" font-weight="400" font-size="41" transform="matrix(1 0 0 1 4548.73 3583)">8</text></g><g><text fill="#FFFFFF" font-family="Calibri,Calibri_MSFontService,sans-serif" font-weight="400" font-size="41" transform="matrix(1 0 0 1 4906.83 3583)">16</text></g><g><text fill="#FFFFFF" font-family="Calibri,Calibri_MSFontService,sans-serif" font-weight="400" font-size="46" transform="matrix(6.12323e-17 -1 1 6.12323e-17 3326.86 3406)">Time(Seconds)</text></g><g><text fill="#FFFFFF" font-family="Calibri,Calibri_MSFontService,sans-serif" font-weight="400" font-size="46" transform="matrix(1 0 0 1 4041.87 3652)">Number of cpus</text></g><g><text fill="#FFFFFF" font-family="Calibri,Calibri_MSFontService,sans-serif" font-weight="400" font-size="64" transform="matrix(1 0 0 1 3723.14 2946)">Modin on single node</text></g><g><text fill="#FFFFFF" font-family="Calibri,Calibri_MSFontService,sans-serif" font-weight="400" font-size="41" transform="matrix(1 0 0 1 4288.67 2946)">(</text></g><g><text fill="#FFFFFF" font-family="Calibri,Calibri_MSFontService,sans-serif" font-weight="400" font-size="41" transform="matrix(1 0 0 1 4301.19 2946)">r6a.4xlarge)</text></g><g><path d="M3854 3759C3854 3765.07 3849.07 3770 3843 3770 3836.93 3770 3832 3765.07 3832 3759 3832 3752.92 3836.93 3748 3843 3748 3849.07 3748 3854 3752.92 3854 3759Z" stroke="#4472C4" stroke-width="3.4375" stroke-linejoin="round" stroke-miterlimit="10" fill="#4472C4"/></g><g><text fill="#FFFFFF" font-family="Calibri,Calibri_MSFontService,sans-serif" font-weight="400" font-size="41" transform="matrix(1 0 0 1 3896.34 3771)">Modin</text></g><g><path d="M4059.5 3759.5 4147.5 3759.5" stroke="#FFC000" stroke-width="4.58333" stroke-linecap="round" stroke-linejoin="bevel" stroke-miterlimit="10" fill="none" fill-rule="evenodd"/></g><g><text fill="#FFFFFF" font-family="Calibri,Calibri_MSFontService,sans-serif" font-weight="400" font-size="41" transform="matrix(1 0 0 1 4157.14 3771)">Pandas(baseline)</text></g><rect x="3226.5" y="2851.5" width="1773" height="975" stroke="#D9D9D9" stroke-width="3.4375" stroke-linejoin="round" stroke-miterlimit="10" fill="none"/></g></svg>