<svg width="1776" height="978" xmlns="http://www.w3.org/2000/svg" xmlns:xlink="http://www.w3.org/1999/xlink" xml:space="preserve" overflow="hidden"><defs><clipPath id="clip0"><rect x="3225" y="2850" width="1776" height="978"/></clipPath></defs><g clip-path="url(#clip0)" transform="translate(-3225 -2850)"><rect x="3226" y="2851" width="1773" height="975"/><g><path d="M0 0 0.000360892 497" stroke="#BFBFBF" stroke-width="3.4375" stroke-linejoin="round" stroke-miterlimit="10" fill="none" fill-rule="evenodd" transform="matrix(1 0 0 -1 3474.5 3517.5)"/></g><g><path d="M3474.5 3517.5 4927.5 3517.5" stroke="#BFBFBF" stroke-width="3.4375" stroke-linejoin="round" stroke-miterlimit="10" fill="none" fill-rule="evenodd"/></g><g><path d="M3474.5 3313.5 3837.63 3313.5 4200.64 3313.5 4564.65 3313.5 4927.5 3313.5" stroke="#FFC000" stroke-width="4.58333" stroke-linecap="round" stroke-linejoin="bevel" stroke-miterlimit="10" fill="none"/></g><g><path d="M3848.06 3058.27C3848.06 3064.35 3843.14 3069.27 3837.06 3069.27 3830.99 3069.27 3826.06 3064.35 3826.06 3058.27 3826.06 3052.2 3830.99 3047.27 3837.06 3047.27 3843.14 3047.27 3848.06 3052.2 3848.06 3058.27Z" stroke="#4472C4" stroke-width="3.4375" stroke-linejoin="round" stroke-miterlimit="10" fill="#4472C4"/><path d="M4212.06 3274.27C4212.06 3280.35 4207.14 3285.27 4201.06 3285.27 4194.99 3285.27 4190.06 3280.35 4190.06 3274.27 4190.06 3268.2 4194.99 3263.27 4201.06 3263.27 4207.14 3263.27 4212.06 3268.2 4212.06 3274.27Z" stroke="#4472C4" stroke-width="3.4375" stroke-linejoin="round" stroke-miterlimit="10" fill="#4472C4"/><path d="M4575.06 3365.27C4575.06 3371.35 4570.14 3376.27 4564.06 3376.27 4557.99 3376.27 4553.06 3371.35 4553.06 3365.27 4553.06 3359.2 4557.99 3354.27 4564.06 3354.27 4570.14 3354.27 4575.06 3359.2 4575.06 3365.27Z" stroke="#4472C4" stroke-width="3.4375" stroke-linejoin="round" stroke-miterlimit="10" fill="#4472C4"/><path d="M4938.06 3397.27C4938.06 3403.35 4933.14 3408.27 4927.06 3408.27 4920.99 3408.27 4916.06 3403.35 4916.06 3397.27 4916.06 3391.2 4920.99 3386.27 4927.06 3386.27 4933.14 3386.27 4938.06 3391.2 4938.06 3397.27Z" stroke="#4472C4" stroke-width="3.4375" stroke-linejoin="round" stroke-miterlimit="10" fill="#4472C4"/></g><g><path d="M4927.5 3397.5 4927.66 3397.5 4906.5 3397.5" stroke="#A6A6A6" stroke-width="3.4375" stroke-linejoin="round" stroke-miterlimit="10" fill="none"/></g><g><text fill="#FFFFFF" font-family="Calibri,Calibri_MSFontService,sans-serif" font-weight="400" font-size="41" transform="matrix(1 0 0 1 3876.7 3073)">923.207</text></g><g><text fill="#FFFFFF" font-family="Calibri,Calibri_MSFontService,sans-serif" font-weight="400" font-size="41" transform="matrix(1 0 0 1 4240.03 3288)">489.165</text></g><g><text fill="#FFFFFF" font-family="Calibri,Calibri_MSFontService,sans-serif" font-weight="400" font-size="41" transform="matrix(1 0 0 1 4603.36 3380)">305.656</text></g><g><text fill="#FFFFFF" font-family="Calibri,Calibri_MSFontService,sans-serif" font-weight="400" font-size="41" transform="matrix(1 0 0 1 4757.38 3411)">242.048</text></g><g><text fill="#FFFFFF" font-family="Calibri,Calibri_MSFontService,sans-serif" font-weight="400" font-size="41" transform="matrix(1 0 0 1 3513.37 3328)">410.04</text></g><g><text fill="#FFFFFF" font-family="Calibri,Calibri_MSFontService,sans-serif" font-weight="400" font-size="41" transform="matrix(1 0 0 1 3415.25 3529)">0</text></g><g><text fill="#FFFFFF" font-family="Calibri,Calibri_MSFontService,sans-serif" font-weight="400" font-size="41" transform="matrix(1 0 0 1 3373.45 3479)">100</text></g><g><text fill="#FFFFFF" font-family="Calibri,Calibri_MSFontService,sans-serif" font-weight="400" font-size="41" transform="matrix(1 0 0 1 3373.45 3430)">200</text></g><g><text fill="#FFFFFF" font-family="Calibri,Calibri_MSFontService,sans-serif" font-weight="400" font-size="41" transform="matrix(1 0 0 1 3373.45 3380)">300</text></g><g><text fill="#FFFFFF" font-family="Calibri,Calibri_MSFontService,sans-serif" font-weight="400" font-size="41" transform="matrix(1 0 0 1 3373.45 3330)">400</text></g><g><text fill="#FFFFFF" font-family="Calibri,Calibri_MSFontService,sans-serif" font-weight="400" font-size="41" transform="matrix(1 0 0 1 3373.45 3281)">500</text></g><g><text fill="#FFFFFF" font-family="Calibri,Calibri_MSFontService,sans-serif" font-weight="400" font-size="41" transform="matrix(1 0 0 1 3373.45 3231)">600</text></g><g><text fill="#FFFFFF" font-family="Calibri,Calibri_MSFontService,sans-serif" font-weight="400" font-size="41" transform="matrix(1 0 0 1 3373.45 3181)">700</text></g><g><text fill="#FFFFFF" font-family="Calibri,Calibri_MSFontService,sans-serif" font-weight="400" font-size="41" transform="matrix(1 0 0 1 3373.45 3132)">800</text></g><g><text fill="#FFFFFF" font-family="Calibri,Calibri_MSFontService,sans-serif" font-weight="400" font-size="41" transform="matrix(1 0 0 1 3373.45 3082)">900</text></g><g><text fill="#FFFFFF" font-family="Calibri,Calibri_MSFontService,sans-serif" font-weight="400" font-size="41" transform="matrix(1 0 0 1 3352.55 3032)">1000</text></g><g><text fill="#FFFFFF" font-family="Calibri,Calibri_MSFontService,sans-serif" font-weight="400" font-size="41" transform="matrix(1 0 0 1 3463.96 3583)">1</text></g><g><text fill="#FFFFFF" font-family="Calibri,Calibri_MSFontService,sans-serif" font-weight="400" font-size="41" transform="matrix(1 0 0 1 3827.29 3583)">2</text></g><g><text fill="#FFFFFF" font-family="Calibri,Calibri_MSFontService,sans-serif" font-weight="400" font-size="41" transform="matrix(1 0 0 1 4190.62 3583)">4</text></g><g><text fill="#FFFFFF" font-family="Calibri,Calibri_MSFontService,sans-serif" font-weight="400" font-size="41" transform="matrix(1 0 0 1 4553.95 3583)">8</text></g><g><text fill="#FFFFFF" font-family="Calibri,Calibri_MSFontService,sans-serif" font-weight="400" font-size="41" transform="matrix(1 0 0 1 4906.83 3583)">16</text></g><g><text fill="#FFFFFF" font-family="Calibri,Calibri_MSFontService,sans-serif" font-weight="400" font-size="46" transform="matrix(6.12323e-17 -1 1 6.12323e-17 3326.86 3406)">Time(Seconds)</text></g><g><text fill="#FFFFFF" font-family="Calibri,Calibri_MSFontService,sans-serif" font-weight="400" font-size="46" transform="matrix(1 0 0 1 4052.32 3652)">Number of cpus</text></g><g><text fill="#FFFFFF" font-family="Calibri,Calibri_MSFontService,sans-serif" font-weight="400" font-size="64" transform="matrix(1 0 0 1 3723.14 2946)">Modin on single node</text></g><g><text fill="#FFFFFF" font-family="Calibri,Calibri_MSFontService,sans-serif" font-weight="400" font-size="41" transform="matrix(1 0 0 1 4288.67 2946)">(</text></g><g><text fill="#FFFFFF" font-family="Calibri,Calibri_MSFontService,sans-serif" font-weight="400" font-size="41" transform="matrix(1 0 0 1 4301.19 2946)">r6a.4xlarge)</text></g><g><path d="M3854 3759C3854 3765.07 3849.07 3770 3843 3770 3836.93 3770 3832 3765.07 3832 3759 3832 3752.92 3836.93 3748 3843 3748 3849.07 3748 3854 3752.92 3854 3759Z" stroke="#4472C4" stroke-width="3.4375" stroke-linejoin="round" stroke-miterlimit="10" fill="#4472C4"/></g><g><text fill="#FFFFFF" font-family="Calibri,Calibri_MSFontService,sans-serif" font-weight="400" font-size="41" transform="matrix(1 0 0 1 3896.34 3771)">Modin</text></g><g><path d="M4059.5 3759.5 4147.5 3759.5" stroke="#FFC000" stroke-width="4.58333" stroke-linecap="round" stroke-linejoin="bevel" stroke-miterlimit="10" fill="none" fill-rule="evenodd"/></g><g><text fill="#FFFFFF" font-family="Calibri,Calibri_MSFontService,sans-serif" font-weight="400" font-size="41" transform="matrix(1 0 0 1 4157.14 3771)">Pandas(baseline)</text></g><rect x="3226.5" y="2851.5" width="1773" height="975" stroke="#D9D9D9" stroke-width="3.4375" stroke-linejoin="round" stroke-miterlimit="10" fill="none"/></g></svg>